<svg width="69" height="37" viewBox="0 0 69 37" fill="none" xmlns="http://www.w3.org/2000/svg">
<path d="M35.9174 29.7686H35.7088C35.672 29.7686 35.6352 29.7807 35.6107 29.8172L33.9172 32.0659L32.2484 29.8172C32.2238 29.7929 32.187 29.7686 32.1502 29.7686H31.9293C31.8557 29.7686 31.8312 29.8172 31.868 29.878L33.7332 32.3697V34.7278C33.7332 34.8494 33.8804 34.8251 33.9786 34.8251C34.0277 34.8251 34.0768 34.7764 34.0768 34.7278V32.3576L35.9788 29.8658C36.0279 29.8172 35.9911 29.7686 35.9174 29.7686Z" fill="white"/>
<path d="M36.9856 31.8711C36.1635 31.8711 35.5254 32.5518 35.5254 33.3783C35.5254 34.2292 36.1635 34.8977 36.9856 34.8977C37.8078 34.8977 38.4582 34.217 38.4582 33.3783C38.4459 32.5518 37.7955 31.8711 36.9856 31.8711ZM36.9856 34.606C36.3353 34.606 35.8322 34.059 35.8322 33.3783C35.8322 32.7098 36.3353 32.175 36.9856 32.175C37.6237 32.175 38.1269 32.7219 38.1269 33.3783C38.1269 34.0712 37.6237 34.606 36.9856 34.606Z" fill="white"/>
<path d="M41.6723 31.9443H41.5373C41.476 31.9443 41.4392 31.9808 41.4392 32.0416V34.1079C41.4146 34.1444 41.0833 34.6184 40.4698 34.6184C39.9176 34.6184 39.5985 34.2781 39.5985 33.6096V32.0537C39.5985 32.0051 39.5494 31.9565 39.5004 31.9565H39.3899C39.3408 31.9565 39.2917 32.0051 39.2917 32.0537V33.6096C39.2917 34.424 39.6476 34.9223 40.4575 34.9223C41.0342 34.9223 41.3901 34.582 41.4637 34.4847L41.4883 34.7643C41.5005 34.8129 41.5128 34.8494 41.5742 34.8494H41.6601C41.7091 34.8494 41.7582 34.8008 41.7582 34.7522V32.0537C41.7705 31.9808 41.7214 31.9443 41.6723 31.9443Z" fill="white"/>
<path d="M44.5438 31.9562C44.4824 31.9319 44.3229 31.8711 44.0898 31.8711C43.5376 31.8711 43.2553 32.2236 43.1817 32.3208L43.1572 32.0291C43.1449 31.9805 43.1081 31.944 43.0713 31.944H42.9854C42.9363 31.944 42.8872 31.9926 42.8872 32.0413V34.7397C42.8872 34.7883 42.9118 34.8369 42.9731 34.8369H43.1204C43.1817 34.8369 43.2185 34.8005 43.2185 34.7397V32.6733C43.2431 32.6247 43.513 32.175 44.0898 32.175C44.2861 32.175 44.4334 32.2479 44.4702 32.2601C44.5193 32.2844 44.5683 32.2722 44.5929 32.2236L44.6542 32.0777C44.642 32.0291 44.6052 31.9805 44.5438 31.9562Z" fill="white"/>
<path d="M46.0654 33.196C45.6359 33.0501 45.3659 32.9043 45.3659 32.6125C45.3659 32.4181 45.5377 32.1507 45.9917 32.1507C46.3108 32.1507 46.593 32.3087 46.6666 32.3573C46.7157 32.3816 46.7771 32.3694 46.8016 32.3208L46.8507 32.2357C46.8753 32.1871 46.863 32.1263 46.8262 32.102C46.6789 32.0048 46.3844 31.8711 46.004 31.8711C45.3291 31.8711 45.0469 32.3087 45.0469 32.6247C45.0469 33.0744 45.4273 33.2932 45.9427 33.4756C46.4335 33.6579 46.7648 33.7916 46.7648 34.1319C46.7648 34.4115 46.4826 34.6424 46.0654 34.6424C45.6604 34.6424 45.3537 34.4237 45.28 34.3629C45.2309 34.3143 45.1696 34.3386 45.145 34.375L45.0714 34.4966C45.0469 34.533 45.0714 34.5817 45.096 34.5938C45.2555 34.7154 45.55 34.922 46.0531 34.922C46.6421 34.922 47.0839 34.5574 47.0839 34.1198C47.0961 33.5728 46.6176 33.3905 46.0654 33.196Z" fill="white"/>
<path d="M48.213 34.3389C48.029 34.3389 47.9062 34.4483 47.9062 34.6184C47.9062 34.7643 48.0044 34.9102 48.2008 34.9102C48.2498 34.9102 48.2867 34.898 48.3235 34.8737C48.348 34.9466 48.3726 35.0439 48.3603 35.1533C48.3112 35.5908 47.9921 35.8096 47.9553 35.8461C47.9062 35.8826 47.894 35.9312 47.9308 35.9676L47.9921 36.0406C48.0167 36.077 48.0658 36.0649 48.1149 36.0406C48.2498 35.9555 48.6425 35.6151 48.6425 35.0317C48.618 34.5333 48.4216 34.3389 48.213 34.3389Z" fill="white"/>
<path d="M53.9432 29.7686H50.8018C50.7527 29.7686 50.7036 29.805 50.7036 29.8658V29.9752C50.7036 30.036 50.7282 30.0846 50.8018 30.0846H52.2007V34.74C52.2007 34.7886 52.2498 34.8372 52.2988 34.8372H52.4338C52.5075 34.8372 52.5565 34.7886 52.5565 34.74V30.0846H53.9554C54.0168 30.0846 54.0536 30.036 54.0536 29.9873V29.8658C54.0413 29.8172 54.0045 29.7686 53.9432 29.7686Z" fill="white"/>
<path d="M55.87 31.9562C55.8086 31.9319 55.6491 31.8711 55.4159 31.8711C54.8637 31.8711 54.5815 32.2236 54.5079 32.3208L54.4833 32.0291C54.4711 31.9805 54.4343 31.944 54.3974 31.944H54.3115C54.2625 31.944 54.2134 31.9926 54.2134 32.0413V34.7397C54.2134 34.7883 54.2379 34.8369 54.2993 34.8369H54.4465C54.5079 34.8369 54.5447 34.8005 54.5447 34.7397V32.6733C54.5692 32.6247 54.8392 32.175 55.4159 32.175C55.6123 32.175 55.7595 32.2479 55.7963 32.2601C55.8454 32.2844 55.8945 32.2722 55.9191 32.2236L55.9804 32.0777C55.9681 32.0291 55.9313 31.9805 55.87 31.9562Z" fill="white"/>
<path d="M58.901 31.9443H58.7783C58.717 31.9443 58.6802 31.9808 58.6802 32.0416V34.1079C58.6556 34.1444 58.3243 34.6184 57.7107 34.6184C57.1585 34.6184 56.8395 34.2781 56.8395 33.6096V32.0537C56.8395 32.0051 56.7904 31.9565 56.7413 31.9565H56.6063C56.5573 31.9565 56.5082 32.0051 56.5082 32.0537V33.6096C56.5082 34.424 56.864 34.9223 57.6739 34.9223C58.2507 34.9223 58.6065 34.582 58.6802 34.4847L58.7047 34.7643C58.717 34.8129 58.7292 34.8494 58.7906 34.8494H58.8765C58.9256 34.8494 58.9747 34.8008 58.9747 34.7522V32.0537C58.9992 31.9808 58.9501 31.9443 58.901 31.9443Z" fill="white"/>
<path d="M60.3368 29.7686H60.2018C60.1527 29.7686 60.1036 29.8172 60.1036 29.8658V34.74C60.1036 34.7886 60.1282 34.8372 60.1895 34.8372H60.3368C60.3981 34.8372 60.435 34.8007 60.435 34.74V29.8658C60.435 29.8172 60.3859 29.7686 60.3368 29.7686Z" fill="white"/>
<path d="M64.0549 31.9443H63.8954C63.8586 31.9443 63.8218 31.9686 63.7972 32.0051L62.656 34.4483H62.6438L61.3921 32.0051C61.3676 31.9565 61.3308 31.9443 61.2939 31.9443H61.1344C61.0731 31.9443 61.0608 32.0051 61.0853 32.0659L62.4597 34.8129L61.478 36.9036C61.4535 36.9644 61.4657 37.0008 61.5271 37.0008H61.6989C61.7357 37.0008 61.7848 36.9765 61.7971 36.9401L64.0917 32.0537C64.1286 31.993 64.1163 31.9443 64.0549 31.9443Z" fill="white"/>
<path d="M34.2608 16.5796C34.3713 16.6404 34.4817 16.6647 34.5799 16.6647C34.7639 16.6647 34.9112 16.5675 35.0216 16.3851L35.3898 15.8139C35.3898 15.8139 35.3898 15.8139 35.3898 15.8017C35.4511 15.668 35.5738 15.5221 35.7333 15.3641C35.8561 15.2426 35.9174 15.1089 35.9174 14.9752C35.9174 14.8415 35.8561 14.7199 35.7333 14.5984C35.4879 14.2823 35.1934 14.2823 34.948 14.5984C34.7271 14.7807 34.4326 15.1818 34.0522 15.8017C33.9295 15.9597 33.8804 16.1177 33.9172 16.2514C33.9663 16.3851 34.0768 16.4945 34.2608 16.5796Z" fill="white"/>
<path d="M68.7916 17.5766C68.5584 17.3457 68.3007 17.3457 68.0676 17.5766L67.4909 18.0264C67.4786 18.0264 67.454 18.0264 67.4418 18.0385C66.73 18.622 65.5275 19.3999 63.8464 20.348C63.785 20.032 63.7114 19.643 63.6132 19.1689L63.4414 18.2452C63.4537 18.233 63.466 18.2087 63.466 18.1844C63.466 18.1601 63.4537 18.1479 63.4537 18.1236C63.6868 17.9291 63.8954 17.6982 64.0795 17.4672C64.4354 17.0418 64.644 16.6772 64.7176 16.349C64.9017 15.9479 64.8649 15.5467 64.6072 15.1456C64.3863 14.8174 64.104 14.6594 63.7605 14.6959C63.466 14.6959 63.1837 14.8296 62.926 15.0848C62.926 15.0848 62.926 15.0848 62.926 15.097C62.7174 15.3766 62.5334 15.7655 62.3861 16.2639C62.3861 16.2639 62.3861 16.2639 62.3861 16.276C62.3125 16.823 62.3002 17.2728 62.337 17.5888C62.337 17.6009 62.337 17.6253 62.337 17.6496C61.9934 17.9413 61.5639 18.2938 61.0363 18.6949L59.1466 20.1414C57.3918 21.2353 56.2629 21.7823 55.7966 21.7823C55.772 21.7823 55.6493 21.758 55.1339 21.2961L54.6063 20.7248L54.3486 20.4695C55.7597 20.2872 56.901 19.8861 57.7354 19.2662C58.6434 18.549 58.9625 17.8562 58.6557 17.2241C58.4962 16.8838 58.1158 16.665 57.5268 16.5921H57.5145C57.2936 16.5921 56.9746 16.665 56.5328 16.8109C56.042 16.9932 55.4775 17.2849 54.8885 17.6982C54.324 18.0507 53.7596 18.4518 53.1951 18.9015C52.9742 19.0717 52.7533 19.254 52.5325 19.4242C52.4711 19.4242 52.422 19.4242 52.3607 19.4242C52.5202 19.0717 52.692 18.6827 52.8761 18.2573C55.3916 16.0329 57.5513 13.8693 59.3183 11.8151C60.6436 10.1499 61.5517 8.82499 62.0057 7.85259C62.4352 7.01389 62.6438 6.22381 62.6438 5.51882C62.6438 5.1177 62.5334 4.77736 62.3002 4.5221C62.0671 4.25469 61.748 4.12098 61.3185 4.12098C60.7418 4.15745 60.0669 4.50995 59.3183 5.17847C58.7171 5.66468 58.2017 6.23597 57.7845 6.85587C57.0114 7.82828 56.1279 9.18965 55.1585 10.9157C54.6185 11.8881 53.5632 14.1246 51.9925 17.5645C51.968 17.5766 51.9557 17.6009 51.9312 17.6253C51.5508 17.9656 50.9618 18.4275 50.1764 19.0109C49.2929 19.643 48.6671 20.0684 48.2867 20.3115C47.5872 20.7977 46.9246 21.2232 46.2988 21.6C45.8448 21.8066 45.6362 21.7944 45.5503 21.758C45.5012 21.7337 45.3662 21.6729 45.403 21.3082C45.4766 20.7613 45.6484 20.19 45.9184 19.6187C45.9184 19.6187 45.9184 19.6187 45.9184 19.6065C45.9552 19.5093 46.0166 19.3877 46.0902 19.254C46.1761 19.1082 46.2374 18.9866 46.2742 18.8772C46.3111 18.78 46.3724 18.6341 46.4583 18.4396C46.5442 18.2452 46.6056 18.0993 46.6424 17.9899C46.7896 17.5159 46.8019 17.1634 46.6915 16.9081C46.6915 16.9081 46.6915 16.9081 46.6915 16.896C46.4706 16.5191 46.0534 16.4097 45.4644 16.5556C45.2803 16.5921 44.949 16.7258 44.4459 16.981C43.82 17.3335 42.9365 17.9656 41.8199 18.8529C41.6481 18.9745 41.4149 19.1568 41.1081 19.4242C41.2554 18.9015 41.8199 17.6496 41.0222 17.4065C41.01 17.4065 40.9977 17.4065 40.9854 17.3943C40.7891 17.3578 40.605 17.4429 40.47 17.5766C39.5006 18.4518 38.2858 19.1446 37.1201 19.7281C35.5248 20.6519 34.3959 21.1259 33.7455 21.1259C33.6228 21.1259 33.451 21.0773 33.451 20.6762C33.451 20.2264 33.586 19.7645 33.721 19.3391C33.8069 19.0596 33.9173 18.7921 34.0155 18.5247C34.1014 18.2938 34.2609 18.0628 34.31 17.8197C34.445 17.1634 33.7332 17.0297 33.316 17.3822C32.7761 17.844 32.0767 18.1722 31.4754 18.5369C30.6778 19.0109 29.8801 19.485 29.0825 19.959C28.1867 20.4938 27.291 21.0165 26.3952 21.5513C25.9166 21.8309 25.438 22.1348 24.984 22.4508C24.5913 22.1956 24.1128 22.0132 23.5851 21.9403C22.628 21.7944 21.8058 21.6972 21.0818 21.6486C19.4743 21.527 17.9036 21.5878 16.4188 21.8431C17.5478 21.2353 18.6276 20.6397 19.6461 20.032C22.3825 18.4153 25.5239 16.4097 28.064 13.7599C29.2911 12.4837 30.1747 11.2317 30.6655 10.0405C31.3649 8.3631 31.3404 6.80725 30.5919 5.39727C29.4875 3.33091 27.021 2.55298 25.2785 2.15187C23.217 1.67782 21.0205 1.56842 18.7135 1.81152C18.7012 1.72644 18.689 1.64135 18.6767 1.54411C18.6399 1.33748 18.5663 1.143 18.4681 0.960669C18.3454 0.729723 18.1859 0.523087 18.0018 0.365072C17.8177 0.207056 17.6091 0.0976603 17.3882 0.036885C16.4556 -0.218371 15.5108 0.498777 15.2776 1.65351L15.1549 2.4679C13.4861 2.90548 11.7558 3.51323 10.0256 4.29116C6.70017 5.82269 3.43608 7.85259 0.38059 10.3201C0.0124592 10.6239 -0.09798 11.1101 0.0983564 11.5356C0.270151 11.9002 0.626011 12.1312 1.03095 12.1312C1.09231 12.1312 1.15366 12.1312 1.21502 12.119C2.8348 11.8273 4.12325 11.1952 4.17234 11.1709L4.27051 11.1223C4.31959 11.098 4.34413 11.0372 4.31959 10.9886L3.8901 10.1377C3.86556 10.0891 3.80421 10.0648 3.75512 10.0891L3.65696 10.1377C3.64468 10.1377 2.76117 10.5753 1.57088 10.867C4.41776 8.6062 7.43643 6.75863 10.5533 5.3608C12.0626 4.68012 13.5474 4.13314 14.9954 3.73202V3.75633L14.7745 5.16632L12.7621 17.917L12.5903 18.9623L12.3203 20.7126L12.1608 21.7337L11.989 22.8155C11.535 23.0343 11.0809 23.253 10.6146 23.4718C9.66976 23.8365 8.74943 24.2741 7.86592 24.6995C7.31372 24.9669 6.73698 25.2343 6.16025 25.4896L6.06208 25.526C6.03754 25.5382 6.01299 25.5625 6.01299 25.5868C6.01299 25.6111 6.00072 25.6354 6.01299 25.6597L6.40567 26.5349C6.43021 26.5835 6.49156 26.6078 6.54065 26.5835L6.63882 26.5471C8.35676 25.7935 9.76793 25.1492 11.0932 24.5415C11.2036 24.4929 11.3263 24.4564 11.4368 24.4078C11.5472 24.3713 11.6577 24.3227 11.7681 24.2862L10.3447 33.2445C10.2956 33.5241 10.4428 33.7915 10.676 33.8523C10.7987 33.8766 10.9091 33.8523 11.0073 33.7793C11.0932 33.7186 11.1668 33.6092 11.1914 33.4755L13.5719 23.7028C14.5904 23.4111 15.5967 23.168 16.5784 22.9978C17.9895 22.7547 19.4989 22.6818 21.0327 22.8033C21.7322 22.8519 22.5298 22.9492 23.4624 23.095C23.6465 23.1193 23.8183 23.168 23.9778 23.2166C23.3151 23.7028 22.6893 24.1647 22.088 24.6266C20.456 25.8785 18.554 27.3979 16.8729 29.1239C15.523 30.5096 13.9769 32.3937 14.2346 33.5605C14.2959 33.8401 14.48 34.2291 15.0199 34.4357C15.204 34.5086 15.4003 34.5451 15.6335 34.5451C15.8053 34.5451 15.9771 34.5208 16.1121 34.5086C17.7564 34.2655 19.4866 33.6456 21.1186 32.6975C23.3888 31.3848 25.0331 29.5494 25.9043 27.3858C26.5056 25.8907 26.5056 24.3835 25.9289 23.3746C25.9166 23.3503 25.9043 23.326 25.8921 23.3017C26.2725 23.0464 26.6774 22.7912 27.0824 22.5481L32.7025 19.2054C32.6779 19.2905 32.6411 19.3999 32.6043 19.5336C32.3957 20.4817 32.4325 21.1988 32.7148 21.6607C32.8988 21.9525 33.2301 22.1348 33.7087 22.2077C33.7578 22.2199 33.8069 22.2199 33.856 22.2199C34.3959 22.2199 35.3285 21.8917 36.6783 21.2232C37.9913 20.5546 39.1693 19.8618 40.1633 19.1689L40.0406 19.6308L39.5129 21.0287C39.4515 21.1988 39.4515 21.4298 39.7461 21.6243C39.9792 21.7823 40.2124 21.758 40.4087 21.5635C40.6173 21.3204 40.8259 21.1138 41.0345 20.9436L41.918 20.1657L42.7525 19.485C43.4764 18.8651 44.2127 18.3667 44.949 17.9899C45.3907 17.7225 45.6239 17.6131 45.7466 17.5645C45.6239 17.8805 45.3907 18.3789 45.0594 19.0474C44.6422 19.959 44.4213 20.7126 44.4213 21.3082C44.4213 22.0619 44.6667 22.5481 45.1453 22.7668C45.2926 22.8276 45.4521 22.8641 45.6116 22.8641C45.8202 22.8641 46.0288 22.8155 46.2497 22.7182C46.3233 22.6818 46.6792 22.5116 47.2437 22.2442C48.2499 21.6972 49.207 21.0651 50.0783 20.3723C50.3482 20.19 50.6918 19.9469 51.0722 19.6551C50.7286 20.3845 50.4587 20.9557 50.2623 21.3447C50.1764 21.4541 50.1273 21.5513 50.1028 21.6364C50.066 21.7337 50.066 21.8188 50.0783 21.8917C50.1028 21.9889 50.1764 22.074 50.2746 22.1469L50.2869 22.1591C50.5691 22.3536 50.8513 22.3536 51.0968 22.1591C51.0968 22.1591 51.0968 22.1591 51.109 22.1591C51.4894 21.7823 52.0662 21.2718 52.827 20.664L52.8392 20.6519C52.9251 20.6883 53.011 20.7491 53.1092 20.8463C53.2442 20.9679 53.3546 21.0408 53.4283 21.0894C53.5632 21.2353 53.7596 21.4419 54.0173 21.7215C54.2872 22.0254 54.4836 22.232 54.6308 22.3779C54.9621 22.7061 55.318 22.8884 55.6861 22.9249C55.6861 22.9249 55.6861 22.9249 55.6984 22.9249C56.0174 22.9249 56.3488 22.8762 56.6801 22.7668C57.1464 22.5845 57.7967 22.2563 58.6312 21.7701C59.9196 20.9801 61.2326 20.0441 62.5334 18.9502C62.5947 19.3027 62.6683 19.7038 62.7542 20.19C62.8156 20.4574 62.8524 20.7126 62.9015 20.9314C61.8953 21.6243 61.3431 22.0132 61.2081 22.1469C60.9259 22.3536 60.6436 22.6696 60.3614 23.095C60.1528 23.3381 59.9687 23.7149 59.8215 24.2133V24.2255C59.7478 24.8697 59.9074 25.3559 60.2878 25.6841C60.5577 25.9029 60.8768 26.0244 61.2572 26.0244C61.429 26.0244 61.6008 26.0001 61.7848 25.9636C62.1775 25.8542 62.5702 25.6476 62.9628 25.3316C63.2451 25.052 63.515 24.6995 63.7605 24.2741C63.9323 23.8851 64.055 23.4475 64.1286 22.9492C64.1654 22.6331 64.1409 22.232 64.0795 21.7458C64.0795 21.7215 64.0672 21.6486 64.0427 21.4541C64.1777 21.3812 64.2636 21.3204 64.3127 21.2961L66.4601 20.0441C67.3313 19.4607 68.1167 18.8772 68.767 18.3302C68.902 18.233 68.9634 18.1358 68.9756 18.0142C69.0125 17.8562 68.9388 17.7225 68.7916 17.5766ZM56.1647 18.1844C57.0114 17.8076 57.3427 17.7346 57.4777 17.7346C57.539 17.7346 57.5759 17.7468 57.5881 17.7468C57.5881 17.8684 57.4777 18.075 57.0482 18.3789C56.5083 18.78 55.7107 19.0839 54.6922 19.2905C54.6554 19.2905 54.6063 19.2905 54.5449 19.3027C55.2566 18.78 55.7966 18.4153 56.1647 18.1844ZM55.048 13.5655C56.0911 11.4383 57.22 9.51783 58.3857 7.8769C59.0361 7.06251 59.6497 6.38183 60.2019 5.87131C60.705 5.50666 61.0854 5.32434 61.3431 5.32434C61.4167 5.32434 61.5517 5.32434 61.5517 5.64037C61.5517 6.27243 61.2081 7.15975 60.5209 8.29017C60.0301 9.04378 59.576 9.688 59.1588 10.1985C59.1588 10.2107 59.1466 10.2107 59.1466 10.2228C59.0975 10.3079 58.8152 10.6847 57.7477 11.961L56.226 13.5655C55.5634 14.2705 54.8272 14.9998 54.005 15.7534C54.4467 14.8539 54.7781 14.1246 55.048 13.5655ZM15.8666 3.62263L16.2225 1.56842C16.3084 1.10653 16.7501 0.790499 17.2164 0.875584C17.6337 0.948514 17.9282 1.30101 17.9282 1.71428C17.9282 1.7629 17.9282 1.81152 17.9159 1.86014L17.9036 1.94523C17.7686 1.96954 17.6337 1.98169 17.4864 2.006C17.3023 2.04247 17.0937 2.07893 16.8483 2.12756L16.787 2.13971C16.7501 2.15187 16.7256 2.17618 16.7133 2.20049L16.6888 2.26126C16.6274 2.41928 16.652 2.58945 16.652 2.711C16.652 2.79608 16.6765 3.07565 16.9219 3.23367L16.9588 3.25798C16.9833 3.27013 17.0078 3.28229 17.0324 3.27013L17.0692 3.25798C17.2778 3.22151 17.4741 3.18505 17.6827 3.14858L17.5478 3.9265C17.4619 4.3884 17.0201 4.70443 16.5538 4.61934C16.0998 4.5221 15.793 4.08452 15.8666 3.62263ZM14.3696 20.3601L14.6886 19.0717L14.9831 17.8562L15.2285 16.8595L18.6153 2.99056C20.8732 2.711 23.0329 2.80824 25.0576 3.28229C26.7142 3.67125 28.7389 4.31547 29.6102 5.94424C30.6532 7.90121 29.8679 10.2593 27.2664 12.9699C24.8122 15.5103 21.7567 17.4672 19.0939 19.0352C17.5355 19.959 15.8666 20.8707 14.026 21.7944L14.3696 20.3601ZM24.7877 26.9603C24.0146 28.8808 22.5298 30.5218 20.4928 31.7008C18.9957 32.576 17.4005 33.1473 15.9034 33.3661C15.7194 33.3904 15.5353 33.4147 15.4126 33.3661C15.3635 33.3417 15.3512 33.3296 15.3512 33.3296C15.3512 33.3296 15.3512 33.3296 15.3512 33.3174C15.3512 33.2931 15.339 33.2688 15.339 33.2445C15.339 32.7826 16.0507 31.6036 17.6827 29.9262C19.3148 28.2488 21.18 26.7659 22.7752 25.5382C23.4379 25.0277 24.125 24.5172 24.8736 23.9702C25.2908 24.6873 25.254 25.7935 24.7877 26.9603ZM62.5579 24.2255C62.1898 24.7238 61.7848 24.9791 61.3553 24.9791C60.8522 24.8818 60.84 24.663 60.84 24.5901C60.8768 24.2862 60.9749 23.9945 61.1222 23.7149C61.2694 23.4354 61.5026 23.1558 61.8094 22.9005C62.1161 22.6453 62.3861 22.4387 62.6193 22.2806C62.742 22.1956 62.9015 22.0983 63.0856 21.9889C63.1346 22.9005 62.9506 23.6542 62.5579 24.2255ZM63.4169 16.5435C63.4537 16.4097 63.5028 16.276 63.5641 16.1423C63.5641 16.1423 63.5641 16.1423 63.5641 16.1302C63.65 15.8992 63.7114 15.7777 63.7482 15.7169C63.7482 15.7412 63.7482 15.7655 63.7482 15.7898C63.7482 16.0937 63.6378 16.3733 63.4046 16.6164C63.4046 16.6042 63.4046 16.5799 63.4169 16.5435Z" fill="white"/>
</svg>
